<svg height="512" viewBox="0 0 512 512" width="512" xmlns="http://www.w3.org/2000/svg"><g id="filled_outline" data-name="filled outline"><path d="m472 456h-432a16 16 0 0 1 -16-16v-320h464v320a16 16 0 0 1 -16 16z" fill="#eaeae8"/><path d="m378 352h-10l-32 24v-24h-50a14 14 0 0 1 -14-14v-60a14 14 0 0 1 14-14h92a14 14 0 0 1 14 14v60a14 14 0 0 1 -14 14z" fill="#fbb540"/><path d="m488 120h-464v-32a16 16 0 0 1 16-16h432a16 16 0 0 1 16 16z" fill="#0a9acd"/><path d="m416 104h-8a8 8 0 0 1 0-16h8a8 8 0 0 1 0 16z" fill="#026ca2"/><path d="m456 104h-8a8 8 0 0 1 0-16h8a8 8 0 0 1 0 16z" fill="#026ca2"/><path d="m134 400h10l32 24v-24h50a14 14 0 0 0 14-14v-60a14 14 0 0 0 -14-14h-92a14 14 0 0 0 -14 14v60a14 14 0 0 0 14 14z" fill="#ffb3b3"/><g fill="#ff6268"><path d="m200 376h-8.77a8 8 0 0 1 0-16h8.77a8 8 0 0 1 0 16z"/><path d="m208 352h-56a8 8 0 0 1 0-16h56a8 8 0 0 1 0 16z"/><path d="m168 376h-16a8 8 0 0 1 0-16h16a8 8 0 0 1 0 16z"/></g><path d="m312 304h-8a8 8 0 0 1 0-16h8a8 8 0 0 1 0 16z" fill="#ea9d2d"/><path d="m360 304h-24a8 8 0 0 1 0-16h24a8 8 0 0 1 0 16z" fill="#ea9d2d"/><path d="m344 328h-40a8 8 0 0 1 0-16h40a8 8 0 0 1 0 16z" fill="#ea9d2d"/><path d="m158 240h26l32 24v-24h34a14 14 0 0 0 14-14v-60a14 14 0 0 0 -14-14h-92a14 14 0 0 0 -14 14v60a14 14 0 0 0 14 14z" fill="#8feaff"/><path d="m232 192h-56a8 8 0 0 1 0-16h56a8 8 0 0 1 0 16z" fill="#0bafea"/><path d="m208 216h-32a8 8 0 0 1 0-16h32a8 8 0 0 1 0 16z" fill="#0bafea"/><path d="m472 64h-432a24.028 24.028 0 0 0 -24 24v352a24.028 24.028 0 0 0 24 24h432a24.028 24.028 0 0 0 24-24v-352a24.028 24.028 0 0 0 -24-24zm8 376a8.009 8.009 0 0 1 -8 8h-432a8.009 8.009 0 0 1 -8-8v-312h448zm0-328h-448v-24a8.009 8.009 0 0 1 8-8h432a8.009 8.009 0 0 1 8 8z"/><path d="m416 88h-8a8 8 0 0 0 0 16h8a8 8 0 0 0 0-16z"/><path d="m456 88h-8a8 8 0 0 0 0 16h8a8 8 0 0 0 0-16z"/><path d="m134 408h7.333l29.867 22.4a8 8 0 0 0 12.8-6.4v-16h42a22.025 22.025 0 0 0 22-22v-60a22.025 22.025 0 0 0 -22-22h-92a22.025 22.025 0 0 0 -22 22v60a22.025 22.025 0 0 0 22 22zm-6-82a6.006 6.006 0 0 1 6-6h92a6.006 6.006 0 0 1 6 6v60a6.006 6.006 0 0 1 -6 6h-50a8 8 0 0 0 -8 8v8l-19.2-14.4a8 8 0 0 0 -4.8-1.6h-10a6.006 6.006 0 0 1 -6-6z"/><path d="m200 360h-8.77a8 8 0 0 0 0 16h8.77a8 8 0 0 0 0-16z"/><path d="m152 352h56a8 8 0 0 0 0-16h-56a8 8 0 0 0 0 16z"/><path d="m152 376h16a8 8 0 0 0 0-16h-16a8 8 0 0 0 0 16z"/><path d="m264 278v60a22.025 22.025 0 0 0 22 22h42v16a8 8 0 0 0 12.8 6.4l29.867-22.4h7.333a22.025 22.025 0 0 0 22-22v-60a22.025 22.025 0 0 0 -22-22h-92a22.025 22.025 0 0 0 -22 22zm16 0a6.006 6.006 0 0 1 6-6h92a6.006 6.006 0 0 1 6 6v60a6.006 6.006 0 0 1 -6 6h-10a8 8 0 0 0 -4.8 1.6l-19.2 14.4v-8a8 8 0 0 0 -8-8h-50a6.006 6.006 0 0 1 -6-6z"/><path d="m304 304h8a8 8 0 0 0 0-16h-8a8 8 0 0 0 0 16z"/><path d="m336 304h24a8 8 0 0 0 0-16h-24a8 8 0 0 0 0 16z"/><path d="m304 328h40a8 8 0 0 0 0-16h-40a8 8 0 0 0 0 16z"/><path d="m158 248h23.333l29.867 22.4a8 8 0 0 0 12.8-6.4v-16h26a22.025 22.025 0 0 0 22-22v-60a22.025 22.025 0 0 0 -22-22h-92a22.025 22.025 0 0 0 -22 22v60a22.025 22.025 0 0 0 22 22zm-6-82a6.006 6.006 0 0 1 6-6h92a6.006 6.006 0 0 1 6 6v60a6.006 6.006 0 0 1 -6 6h-34a8 8 0 0 0 -8 8v8l-19.2-14.4a8 8 0 0 0 -4.8-1.6h-26a6.006 6.006 0 0 1 -6-6z"/><path d="m176 192h56a8 8 0 0 0 0-16h-56a8 8 0 0 0 0 16z"/><path d="m176 216h32a8 8 0 0 0 0-16h-32a8 8 0 0 0 0 16z"/></g></svg>